<?xml version="1.0" standalone="no"?>
<!DOCTYPE svg PUBLIC "-//W3C//DTD SVG 20010904//EN"
 "http://www.w3.org/TR/2001/REC-SVG-20010904/DTD/svg10.dtd">
<svg version="1.0" xmlns="http://www.w3.org/2000/svg"
 width="75.000000pt" height="10.000000pt" viewBox="0 0 75.000000 10.000000"
 preserveAspectRatio="xMidYMid meet">

<g transform="translate(0.000000,10.000000) scale(0.100000,-0.100000)"
fill="#000000" stroke="none">
<path d="M33 93 c-8 -2 -13 -22 -13 -44 0 -32 3 -39 20 -39 11 0 20 7 20 15 0
19 16 19 24 0 3 -8 12 -15 21 -15 22 0 21 76 -1 84 -18 7 -53 7 -71 -1z m47
-23 c0 -5 -4 -10 -10 -10 -5 0 -10 5 -10 10 0 6 5 10 10 10 6 0 10 -4 10 -10z"/>
<path d="M144 86 c-3 -8 -4 -27 -2 -43 l3 -28 80 0 80 0 0 40 c0 30 -4 41 -17
43 -15 3 -18 -4 -18 -37 0 -51 -18 -54 -22 -4 -2 26 -8 39 -20 41 -13 2 -17
-5 -20 -35 -4 -49 -22 -49 -26 0 -3 38 -27 52 -38 23z"/>
<path d="M320 91 c0 -5 9 -11 20 -14 15 -4 20 -14 20 -36 0 -24 4 -31 20 -31
16 0 20 7 20 35 0 25 4 35 16 35 8 0 12 5 9 10 -8 12 -105 13 -105 1z"/>
<path d="M453 93 c-8 -2 -13 -22 -13 -44 0 -32 3 -39 20 -39 11 0 20 7 20 15
0 19 16 19 24 0 3 -8 15 -15 26 -15 16 0 20 6 20 33 0 18 -5 38 -12 45 -12 12
-62 15 -85 5z m47 -23 c0 -5 -4 -10 -10 -10 -5 0 -10 5 -10 10 0 6 5 10 10 10
6 0 10 -4 10 -10z"/>
<path d="M570 54 c0 -37 3 -44 20 -44 16 0 20 7 20 35 0 19 5 35 10 35 6 0 10
-16 10 -35 0 -28 4 -35 20 -35 16 0 20 7 20 34 0 42 -14 54 -62 54 l-38 0 0
-44z"/>
<path d="M690 56 c0 -40 3 -46 21 -46 18 0 20 5 17 42 -2 31 -8 44 -20 46 -15
3 -18 -4 -18 -42z"/>
</g>
</svg>
