<svg xmlns="http://www.w3.org/2000/svg" viewBox="0 0 32 32"><linearGradient id="a" x1="16" x2="16" y1="32" y2="0" gradientUnits="userSpaceOnUse"><stop offset="0" stop-color="#ff2d76"/><stop offset="1" stop-color="#fb0000"/></linearGradient><path fill="url(#a)" d="M26.551 7.32c-.025.036-2.218 3.203-7.612 5.406a44.2 44.2 0 0 1 .909 1.981c.101.239.2.473.295.708 4.694-.591 9.318.402 9.516.444a13.607 13.607 0 0 0-3.108-8.539zm-5.575 10.252c1.792 4.925 2.52 8.936 2.659 9.759a13.67 13.67 0 0 0 5.855-9.165c-.282-.091-4.104-1.301-8.514-.594zm.357 11.008c-.202-1.194-.995-5.378-2.918-10.375l-.092.031c-8.061 2.809-10.694 8.473-10.722 8.535a13.633 13.633 0 0 0 8.398 2.893 13.614 13.614 0 0 0 5.334-1.084zm-3.445-17.89c5.155-1.932 7.101-4.895 7.135-4.945A13.602 13.602 0 0 0 16 2.338c-1.11 0-2.188.134-3.22.383.205.274 2.771 3.679 5.108 7.969zm-.404 5.251a46.336 46.336 0 0 0-1.108-2.322C9.34 15.725 2.59 15.574 2.348 15.564c-.004.147-.011.289-.011.436 0 3.51 1.324 6.711 3.501 9.128-.005-.006 3.735-6.64 11.108-9.025.176-.058.358-.111.538-.162zm14.189-3.162a16.006 16.006 0 0 1-2.408 12.166 16.144 16.144 0 0 1-1.952 2.368 16.59 16.59 0 0 1-2.367 1.953 16.262 16.262 0 0 1-2.718 1.474c-.966.408-1.978.72-3.006.931a15.955 15.955 0 0 1-6.444 0 16.083 16.083 0 0 1-3.007-.931 16.232 16.232 0 0 1-2.719-1.474 16.151 16.151 0 0 1-4.318-4.321 15.967 15.967 0 0 1-2.41-5.725 16.208 16.208 0 0 1 0-6.441 15.972 15.972 0 0 1 4.363-8.094 16.311 16.311 0 0 1 2.365-1.95 15.844 15.844 0 0 1 5.726-2.41 16.096 16.096 0 0 1 6.444 0c1.028.21 2.039.523 3.006.932.949.402 1.863.899 2.718 1.478a16.323 16.323 0 0 1 2.367 1.951 16.156 16.156 0 0 1 1.952 2.368c.58.853 1.076 1.768 1.475 2.719.41.964.723 1.976.933 3.006zm-16.429-1.264a82.171 82.171 0 0 0-5.074-7.873 13.68 13.68 0 0 0-7.541 9.542c.36.002 6.054.074 12.615-1.669z"/></svg>