<svg id="SvgjsSvg1001" width="288" height="288" xmlns="http://www.w3.org/2000/svg" version="1.1" xmlns:xlink="http://www.w3.org/1999/xlink" xmlns:svgjs="http://svgjs.com/svgjs"><defs id="SvgjsDefs1002"></defs><g id="SvgjsG1008" transform="matrix(0.9167,0,0,0.9167,11.995200000000011,11.995200000000011)"><svg xmlns="http://www.w3.org/2000/svg" width="288" height="288" viewBox="0 0 16 16"><path fill="#ffffff" d="M16 6.6L8 1.4 6 2.7V1H4v3L0 6.6l1.9 2.7.1-.1V15h5v-4h2v4h5V9.2l.1.1L16 6.6zm-14.6.3L8 2.6l6.6 4.3-.7 1L8 4 2.1 7.9l-.7-1zM13 14h-3v-4H6v4H3V8.6l5-3.3 5 3.3V14z" class="color444 svgShape"></path></svg></g></svg>