<svg xmlns="http://www.w3.org/2000/svg" viewBox="0 0 32 32"><path d="M19.8 25.7l-1.2-2.4c1-.8 2.8-2.3 4.7-4.6l.2-.2c-.1 3-2.3 5.8-3.7 7.2m-3-10.5c-.5-.5-1.2-.5-1.6 0l-2.1 2.1-2.5-2.5c1.8-2.2 7.5-8.6 15.9-9.2-.3 4.1-1.9 8-4.9 11.7-1.7 2-3.3 3.5-4.3 4.2L14.8 19l2.1-2.1c.4-.5.4-1.3-.1-1.7m-3.4-6.7l-.2.2c-2.2 1.8-3.8 3.6-4.6 4.7l-2.4-1.2c1.5-1.4 4.3-3.6 7.2-3.7zm6.7 5.2c-1 0-1.8-.8-1.8-1.8s.8-1.8 1.8-1.8 1.8.8 1.8 1.8-.9 1.8-1.8 1.8zm8.7-9.4c0 4-1.2 7.9-3.5 11.6.9 2.7.3 5.7-1.7 8.8-1.5 2.3-3.4 3.8-3.4 3.9-.2.2-.5.3-.7.3h-.2c-.3-.1-.6-.3-.8-.6l-2.2-4.5-3.1-3.1-.9.9c-.2.2-.5.3-.8.3-.3 0-.6-.1-.8-.3-.5-.5-.5-1.2 0-1.6l.9-.9L8.5 16 4 13.8c-.3-.2-.5-.5-.6-.8-.1-.3 0-.7.2-1-.1-.3 1.4-2.1 3.7-3.7 3.1-2 6.1-2.6 8.8-1.7 3.7-2.3 7.6-3.5 11.6-3.5.6.1 1.1.6 1.1 1.2zM10.9 23.8c.6-.3 1.3 0 1.5.6.2.6 0 1.3-.6 1.5-2.4 1-4.9 1.7-6.3 1.7-.6 0-1.2-.5-1.2-1.2 0-1.4.7-3.9 1.7-6.3.3-.6.9-.9 1.5-.6.6.3.9.9.6 1.5-.6 1.5-1.1 2.9-1.3 4 1.1-.1 2.6-.5 4.1-1.2z" fill-rule="evenodd" clip-rule="evenodd" fill="#fff"/></svg>